<svg width="20" height="21" viewBox="0 0 20 21" fill="#28DBD1" xmlns="http://www.w3.org/2000/svg">
	<path d="M19.2308 17.9788H18.4615V6.57656C18.4615 6.15695 18.1169 5.81641 17.6923 5.81641H14.6154C14.1908 5.81641 13.8462 6.15695 13.8462 6.57656V17.9788H12.3077V11.8976C12.3077 11.478 11.9631 11.1375 11.5385 11.1375H8.46154C8.03692 11.1375 7.69231 11.478 7.69231 11.8976V17.9788H6.15385V14.1781C6.15385 13.7585 5.80923 13.4179 5.38462 13.4179H2.30769C1.88308 13.4179 1.53846 13.7585 1.53846 14.1781V17.9788H0.769231C0.344615 17.9788 0 18.3194 0 18.739C0 19.1586 0.344615 19.4991 0.769231 19.4991H19.2308C19.6554 19.4991 20 19.1586 20 18.739C20 18.3194 19.6554 17.9788 19.2308 17.9788Z"/>
	<path d="M6.64375 7.8579C6.84067 7.8579 7.0376 7.78378 7.1876 7.63517L10.7699 4.09515V4.41024C10.7699 4.82984 11.1145 5.17039 11.5391 5.17039C11.9637 5.17039 12.3084 4.82984 12.3084 4.41024V2.26015C12.3084 1.84055 11.9637 1.5 11.5391 1.5H9.36337C8.93875 1.5 8.59414 1.84055 8.59414 2.26015C8.59414 2.67975 8.93875 3.0203 9.36337 3.0203H9.68221L6.10029 6.55994C5.7999 6.85678 5.7999 7.33795 6.10029 7.63479C6.25029 7.7834 6.44721 7.8579 6.64375 7.8579Z"/>
</svg>
