<svg width="20" height="21" viewBox="0 0 20 21" fill="#28DBD1" xmlns="http://www.w3.org/2000/svg">
	<path d="M10 0.5C8.02219 0.5 6.08879 1.08649 4.4443 2.1853C2.79981 3.28412 1.51809 4.8459 0.761209 6.67316C0.0043328 8.50042 -0.1937 10.5111 0.192152 12.4509C0.578004 14.3907 1.53041 16.1725 2.92894 17.5711C4.32746 18.9696 6.10929 19.922 8.0491 20.3078C9.98891 20.6937 11.9996 20.4957 13.8268 19.7388C15.6541 18.9819 17.2159 17.7002 18.3147 16.0557C19.4135 14.4112 20 12.4778 20 10.5C19.9969 7.8488 18.9423 5.30708 17.0676 3.4324C15.1929 1.55772 12.6512 0.503142 10 0.5ZM8.49953 12.0575V5.15812H10.3989V10.1439H14.3115V12.0432L8.49953 12.0575Z"/>
</svg>
