<svg width="24" height="24" viewBox="0 0 24 24" fill="none" xmlns="http://www.w3.org/2000/svg">
<circle cx="12" cy="12" r="12" fill="#627EEA"/>
<g clip-path="url(#clip0_836_373)">
<path d="M11.998 4L11.8906 4.36462V14.9441L11.998 15.0512L16.9087 12.1484L11.998 4Z" fill="#D1D5E4"/>
<path d="M12.0046 4L7.09375 12.1484L12.0046 15.0512V9.91619V4Z" fill="white"/>
<path d="M11.998 15.9794L11.9375 16.0532V19.8218L11.998 19.9984L16.9118 13.0781L11.998 15.9794Z" fill="#B7BAC7"/>
<path d="M12.0046 19.9984V15.9794L7.09375 13.0781L12.0046 19.9984Z" fill="white"/>
<path d="M12 15.049L16.9108 12.1462L12 9.91406V15.049Z" fill="#8896C9"/>
<path d="M7.09375 12.1462L12.0046 15.049V9.91406L7.09375 12.1462Z" fill="#C9CFE8"/>
</g>
<defs>
<clipPath id="clip0_836_373">
<rect width="16" height="16" fill="white" transform="translate(4 4)"/>
</clipPath>
</defs>
</svg>
