<svg width="156" height="41" viewBox="0 0 156 41" fill="none" xmlns="http://www.w3.org/2000/svg">
<path d="M63.4858 18.0938C64.9624 18.0938 66.1519 17.8887 67.0542 17.4785C68.4839 16.834 69.3745 15.6738 69.7261 13.998C70.0894 12.3105 69.6499 11.1738 68.4077 10.5879C67.6929 10.2598 66.5737 10.0957 65.0503 10.0957H58.8101L57.1226 18.0938H63.4858ZM62.1323 30.0117C64.2769 30.0117 65.9351 29.3906 67.1069 28.1484C67.8452 27.3633 68.3374 26.4141 68.5835 25.3008C68.9819 23.4258 68.4136 22.1484 66.8784 21.4688C66.0698 21.1055 64.9331 20.9238 63.4683 20.9238H56.5249L54.5913 30.0117H62.1323ZM56.0151 7.17773H67.1069C70.1304 7.17773 72.0874 8.08008 72.978 9.88477C73.5054 10.9512 73.6167 12.1816 73.312 13.5762C72.9722 15.2051 72.228 16.541 71.0796 17.584C70.4819 18.1348 69.6851 18.6387 68.689 19.0957C69.896 19.5996 70.7632 20.168 71.2905 20.8008C72.2163 21.9258 72.4683 23.4785 72.0464 25.459C71.6948 27.123 70.8511 28.6289 69.5151 29.9766C67.5347 31.9922 64.8452 33 61.4468 33H50.5308L56.0151 7.17773ZM78.2866 14.1738H81.2925L80.6069 17.4258C80.9819 16.793 81.7437 16.0254 82.8921 15.123C84.0522 14.209 85.2593 13.752 86.5132 13.752C86.5718 13.752 86.6714 13.7578 86.812 13.7695C86.9526 13.7813 87.187 13.8047 87.5151 13.8398L86.812 17.1797C86.6245 17.1445 86.4546 17.1211 86.3022 17.1094C86.1499 17.0977 85.98 17.0918 85.7925 17.0918C84.1987 17.0918 82.8628 17.6074 81.7847 18.6387C80.7183 19.6582 80.0386 20.8359 79.7456 22.1719L77.4604 33H74.2964L78.2866 14.1738ZM101.208 23.2793C101.583 21.5215 101.607 20.0918 101.279 18.9902C100.751 17.2559 99.3979 16.3887 97.2183 16.3887C95.2847 16.3887 93.7202 17.127 92.5249 18.6035C91.3413 20.0801 90.5269 21.8613 90.0815 23.9473C89.6597 25.9512 89.7417 27.6211 90.3276 28.957C90.9253 30.293 92.1792 30.9609 94.0894 30.9609C96.187 30.9609 97.7925 30.1699 98.9058 28.5879C100.031 26.9941 100.798 25.2246 101.208 23.2793ZM104.531 23.1914C103.886 26.2266 102.615 28.7344 100.716 30.7148C98.8179 32.6953 96.3159 33.6855 93.2104 33.6855C90.6206 33.6855 88.7515 32.8125 87.603 31.0664C86.4546 29.3086 86.1909 26.9531 86.812 24C87.4917 20.8359 88.8335 18.3164 90.8374 16.4414C92.8413 14.5664 95.1968 13.6289 97.9038 13.6289C100.33 13.6289 102.205 14.4375 103.529 16.0547C104.865 17.6719 105.199 20.0508 104.531 23.1914ZM111.65 7.17773H114.691L111.492 22.1719L121.318 14.1738H125.361L116.66 21.2227L121.775 33H117.732L113.865 23.5078L110.701 25.9336L109.207 33H106.166L111.65 7.17773ZM129.65 7.17773H132.691L129.492 22.1719L139.318 14.1738H143.361L134.66 21.2227L139.775 33H135.732L131.865 23.5078L128.701 25.9336L127.207 33H124.166L129.65 7.17773ZM146.314 14.1738H149.32L148.634 17.4258C149.009 16.793 149.771 16.0254 150.919 15.123C152.08 14.209 153.287 13.752 154.541 13.752C154.599 13.752 154.699 13.7578 154.839 13.7695C154.98 13.7813 155.214 13.8047 155.542 13.8398L154.839 17.1797C154.652 17.1445 154.482 17.1211 154.33 17.1094C154.177 17.0977 154.007 17.0918 153.82 17.0918C152.226 17.0918 150.89 17.6074 149.812 18.6387C148.746 19.6582 148.066 20.8359 147.773 22.1719L145.488 33H142.324L146.314 14.1738Z" fill="white"/>
<path d="M39.8766 18.9585L36.7866 20.2795C37.9416 10.0895 29.9806 3.87948 29.9806 3.87948L29.1666 6.41045C19.9386 -0.559545 9.52759 4.96046 9.18859 5.72146C9.18859 5.72146 24.6456 5.05446 28.2976 16.4715C30.3366 22.8445 27.1766 27.7435 24.1456 29.6575C16.9216 34.2205 11.6646 30.7365 10.8136 29.9295C9.14431 28.4395 8.11741 26.3606 7.9486 24.1295C7.7836 16.3225 16.2396 14.7655 16.2396 14.7655C13.8429 13.9513 11.2495 13.9193 8.83346 14.6742C6.41741 15.429 4.30352 16.9317 2.79659 18.9655C-4.26041 27.7795 4.2636 37.7935 4.2636 37.7935L5.13058 35.2635C13.8996 45.5635 29.7796 38.6485 29.7796 38.6485L27.4666 37.0125C30.9003 35.3077 33.8422 32.7548 36.0139 29.5955C38.1855 26.4362 39.515 22.775 39.8766 18.9585V18.9585Z" fill="url(#paint0_linear_1073_458)"/>
<g style="mix-blend-mode:soft-light" opacity="0.8">
<path d="M1.06247 21.7599C1.52106 20.7577 2.10359 19.8171 2.79645 18.9599C4.30338 16.9262 6.41729 15.4235 8.83334 14.6686C11.2494 13.9138 13.8427 13.9458 16.2394 14.7599C16.2394 14.7599 5.13046 13.1399 0.0224609 25.9599C0.108407 24.508 0.460959 23.0842 1.06247 21.7599Z" fill="black"/>
</g>
<g style="mix-blend-mode:soft-light" opacity="0.8">
<path d="M5.13037 35.2583C13.8994 45.5583 29.7794 38.6433 29.7794 38.6433C29.7794 38.6433 12.1794 43.0913 6.06638 32.5293L5.13037 35.2583Z" fill="black"/>
</g>
<g style="mix-blend-mode:soft-light" opacity="0.8">
<path d="M36.7865 20.2799C37.9415 10.0899 29.9805 3.87988 29.9805 3.87988C31.8194 6.36195 33.147 9.1846 33.8862 12.1839C34.6254 15.1833 34.7615 18.2996 34.2865 21.3519L36.7865 20.2799Z" fill="black"/>
</g>
<g style="mix-blend-mode:soft-light" opacity="0.8">
<path d="M29.1655 6.40655C19.9375 -0.563451 9.5265 4.95655 9.1875 5.71755C9.1875 5.71755 19.7175 0.385569 28.3065 9.07757L29.1655 6.40655Z" fill="black"/>
</g>
<g style="mix-blend-mode:soft-light" opacity="0.8">
<path d="M27.4658 37.008C30.8988 35.3036 33.8403 32.7515 36.0119 29.5932C38.1835 26.4348 39.5134 22.7747 39.8758 18.959C39.8758 18.959 35.5508 31.759 24.6558 35.021L27.4658 37.008Z" fill="black"/>
</g>
<defs>
<linearGradient id="paint0_linear_1073_458" x1="13.4783" y1="40.92" x2="35.2106" y2="-9.48762" gradientUnits="userSpaceOnUse">
<stop stop-color="#00E676"/>
<stop offset="1" stop-color="#00D895"/>
</linearGradient>
</defs>
</svg>
