<svg width="282" height="60" viewBox="0 0 282 60" fill="none" xmlns="http://www.w3.org/2000/svg">
<path d="M38.0375 25.6591H31.75V19.6012H51.2763V25.6591H45.0669V45.5305H38.0375V25.6591Z" fill="white"/>
<path d="M75.6985 19.6012V45.5305H68.669V35.4597H61.3662V45.5305H54.4148V19.6012H61.3662V29.5176H68.669V19.6012H75.6985Z" fill="white"/>
<path d="M90.8796 46.0321C86.8962 46.0321 84.0193 44.9646 82.249 42.8295C80.5046 40.6945 79.6324 37.3118 79.6324 32.6816C79.6324 27.9999 80.5046 24.5659 82.249 22.3794C83.9933 20.1929 86.8702 19.0996 90.8796 19.0996C94.889 19.0996 97.7659 20.1929 99.5102 22.3794C101.255 24.5659 102.127 27.9871 102.127 32.643C102.127 37.0932 101.268 40.4372 99.5493 42.6752C97.8309 44.9131 94.9411 46.0321 90.8796 46.0321ZM90.8796 40.09C91.895 40.09 92.689 39.8456 93.2618 39.3569C93.8606 38.8424 94.2902 38.0578 94.5505 37.0032C94.8109 35.9228 94.9411 34.4694 94.9411 32.643C94.9411 29.9163 94.6416 27.9742 94.0428 26.8167C93.444 25.6334 92.3896 25.0417 90.8796 25.0417C89.3956 25.0417 88.3412 25.6334 87.7163 26.8167C87.1175 27.9999 86.8181 29.9549 86.8181 32.6816C86.8181 35.0996 87.0785 36.9388 87.5992 38.1993C88.1199 39.4597 89.2133 40.09 90.8796 40.09Z" fill="white"/>
<path d="M106.167 19.6012H116.672C119.953 19.6012 122.413 20.3601 124.053 21.8777C125.719 23.3954 126.553 25.6334 126.553 28.5916C126.553 31.5498 125.485 34.0321 123.35 36.0385L126.201 45.5305H118.586L116.672 37.6977H113.119V45.5305H106.167V19.6012ZM116.789 31.8327C117.623 31.8327 118.26 31.5241 118.703 30.9067C119.172 30.2636 119.406 29.4919 119.406 28.5916C119.406 27.717 119.146 26.971 118.625 26.3536C118.13 25.7363 117.479 25.4276 116.672 25.4276H113.119V31.8327H116.789Z" fill="white"/>
<path d="M138.465 46.0707C136.226 46.0707 133.675 45.6977 130.811 44.9517L129.405 44.643L130.108 39.3954C133.545 39.8585 136.2 40.09 138.075 40.09C140.106 40.09 141.121 39.3954 141.121 38.0064C141.121 37.5176 140.887 37.1318 140.418 36.8488C139.976 36.5659 139.312 36.2572 138.426 35.9228C137.854 35.717 137.437 35.5498 137.177 35.4212C134.235 34.4437 132.139 33.3247 130.889 32.0642C129.666 30.8038 129.054 29.2218 129.054 27.3183C129.054 24.6173 129.887 22.5723 131.553 21.1832C133.219 19.7941 135.484 19.0996 138.348 19.0996C139.52 19.0996 140.626 19.1768 141.668 19.3311C142.735 19.4855 144.675 19.8199 147.487 20.3343L146.94 25.6591C143.555 25.2732 140.952 25.0803 139.129 25.0803C136.994 25.0803 135.927 25.6591 135.927 26.8167C135.927 27.2025 136.187 27.5369 136.708 27.8199C137.229 28.0771 138.049 28.4115 139.168 28.8231C140.314 29.2347 141.056 29.5176 141.394 29.672C143.113 30.3665 144.441 31.0482 145.378 31.717C146.315 32.3601 146.992 33.1446 147.409 34.0707C147.825 34.9967 148.033 36.1671 148.033 37.5819C148.033 39.3826 147.604 40.926 146.745 42.2122C145.911 43.4726 144.766 44.4372 143.308 45.1061C141.876 45.7491 140.262 46.0707 138.465 46.0707Z" fill="white"/>
<path d="M155.958 25.6591H149.671V19.6012H169.197V25.6591H162.987V45.5305H155.958V25.6591Z" fill="white"/>
<path d="M184.159 42.2122H176.504L175.997 45.5305H168.967L174.005 19.6012H186.658L191.696 45.5305H184.666L184.159 42.2122ZM181.191 25.2347H179.472L177.676 36.27H182.987L181.191 25.2347Z" fill="white"/>
<path d="M194.798 19.6012H205.303C208.584 19.6012 211.044 20.3601 212.684 21.8777C214.351 23.3954 215.184 25.6334 215.184 28.5916C215.184 31.5498 214.116 34.0321 211.981 36.0385L214.832 45.5305H207.217L205.303 37.6977H201.75V45.5305H194.798V19.6012ZM205.421 31.8327C206.254 31.8327 206.891 31.5241 207.334 30.9067C207.803 30.2636 208.037 29.4919 208.037 28.5916C208.037 27.717 207.777 26.971 207.256 26.3536C206.761 25.7363 206.11 25.4276 205.303 25.4276H201.75V31.8327H205.421Z" fill="white"/>
<path d="M223.575 25.6591H217.288V19.6012H236.814V25.6591H230.605V45.5305H223.575V25.6591Z" fill="white"/>
<path d="M246.904 25.5819V29.6334H255.261V35.4983H246.904V39.5498H257.605V45.5305H239.953V19.6012H257.605V25.5819H246.904Z" fill="white"/>
<path d="M261.615 19.6012H272.12C275.4 19.6012 277.861 20.3601 279.501 21.8777C281.167 23.3954 282 25.6334 282 28.5916C282 31.5498 280.933 34.0321 278.798 36.0385L281.649 45.5305H274.033L272.12 37.6977H268.566V45.5305H261.615V19.6012ZM272.237 31.8327C273.07 31.8327 273.708 31.5241 274.151 30.9067C274.619 30.2636 274.854 29.4919 274.854 28.5916C274.854 27.717 274.593 26.971 274.073 26.3536C273.578 25.7363 272.927 25.4276 272.12 25.4276H268.566V31.8327H272.237Z" fill="white"/>
<path d="M0 34.1479L21.0884 0L12.6179 26.2379H22.4552L1.5621 60L9.95841 34.1479H0Z" fill="#28DBD1"/>
</svg>
