<svg width="1445" height="311" viewBox="0 0 1445 311" fill="none" xmlns="http://www.w3.org/2000/svg">
	<path d="M194.8 133H162.6V101.6H262.6V133H230.8V236H194.8V133Z" fill="white"/>
	<path d="M387.674 101.6V236H351.674V183.8H314.274V236H278.674V101.6H314.274V153H351.674V101.6H387.674Z" fill="white"/>
	<path d="M465.42 238.6C445.02 238.6 430.287 233.067 421.22 222C412.287 210.933 407.82 193.4 407.82 169.4C407.82 145.133 412.287 127.333 421.22 116C430.154 104.667 444.887 99 465.42 99C485.954 99 500.687 104.667 509.62 116C518.554 127.333 523.02 145.067 523.02 169.2C523.02 192.267 518.62 209.6 509.82 221.2C501.02 232.8 486.22 238.6 465.42 238.6ZM465.42 207.8C470.62 207.8 474.687 206.533 477.62 204C480.687 201.333 482.887 197.267 484.22 191.8C485.554 186.2 486.22 178.667 486.22 169.2C486.22 155.067 484.687 145 481.62 139C478.554 132.867 473.154 129.8 465.42 129.8C457.82 129.8 452.42 132.867 449.22 139C446.154 145.133 444.62 155.267 444.62 169.4C444.62 181.933 445.954 191.467 448.62 198C451.287 204.533 456.887 207.8 465.42 207.8Z" fill="white"/>
	<path d="M543.713 101.6H597.513C614.313 101.6 626.913 105.533 635.313 113.4C643.846 121.267 648.113 132.867 648.113 148.2C648.113 163.533 642.646 176.4 631.713 186.8L646.313 236H607.313L597.513 195.4H579.313V236H543.713V101.6ZM598.113 165C602.379 165 605.646 163.4 607.913 160.2C610.313 156.867 611.513 152.867 611.513 148.2C611.513 143.667 610.179 139.8 607.513 136.6C604.979 133.4 601.646 131.8 597.513 131.8H579.313V165H598.113Z" fill="white"/>
	<path d="M709.122 238.8C697.655 238.8 684.589 236.867 669.922 233L662.722 231.4L666.322 204.2C683.922 206.6 697.522 207.8 707.122 207.8C717.522 207.8 722.722 204.2 722.722 197C722.722 194.467 721.522 192.467 719.122 191C716.855 189.533 713.455 187.933 708.922 186.2C705.989 185.133 703.855 184.267 702.522 183.6C687.455 178.533 676.722 172.733 670.322 166.2C664.055 159.667 660.922 151.467 660.922 141.6C660.922 127.6 665.189 117 673.722 109.8C682.255 102.6 693.855 99 708.522 99C714.522 99 720.189 99.4 725.522 100.2C730.989 101 740.922 102.733 755.322 105.4L752.522 133C735.189 131 721.855 130 712.522 130C701.589 130 696.122 133 696.122 139C696.122 141 697.455 142.733 700.122 144.2C702.789 145.533 706.989 147.267 712.722 149.4C718.589 151.533 722.389 153 724.122 153.8C732.922 157.4 739.722 160.933 744.522 164.4C749.322 167.733 752.789 171.8 754.922 176.6C757.055 181.4 758.122 187.467 758.122 194.8C758.122 204.133 755.922 212.133 751.522 218.8C747.255 225.333 741.389 230.333 733.922 233.8C726.589 237.133 718.322 238.8 709.122 238.8Z" fill="white"/>
	<path d="M798.706 133H766.506V101.6H866.506V133H834.706V236H798.706V133Z" fill="white"/>
	<path d="M943.13 218.8H903.93L901.33 236H865.33L891.13 101.6H955.93L981.73 236H945.73L943.13 218.8ZM927.93 130.8H919.13L909.93 188H937.13L927.93 130.8Z" fill="white"/>
	<path d="M997.619 101.6H1051.42C1068.22 101.6 1080.82 105.533 1089.22 113.4C1097.75 121.267 1102.02 132.867 1102.02 148.2C1102.02 163.533 1096.55 176.4 1085.62 186.8L1100.22 236H1061.22L1051.42 195.4H1033.22V236H997.619V101.6ZM1052.02 165C1056.29 165 1059.55 163.4 1061.82 160.2C1064.22 156.867 1065.42 152.867 1065.42 148.2C1065.42 143.667 1064.09 139.8 1061.42 136.6C1058.89 133.4 1055.55 131.8 1051.42 131.8H1033.22V165H1052.02Z" fill="white"/>
	<path d="M1145 133H1112.8V101.6H1212.8V133H1181V236H1145V133Z" fill="white"/>
	<path d="M1264.47 132.6V153.6H1307.27V184H1264.47V205H1319.27V236H1228.87V101.6H1319.27V132.6H1264.47Z" fill="white"/>
	<path d="M1339.81 101.6H1393.61C1410.41 101.6 1423.01 105.533 1431.41 113.4C1439.94 121.267 1444.21 132.867 1444.21 148.2C1444.21 163.533 1438.74 176.4 1427.81 186.8L1442.41 236H1403.41L1393.61 195.4H1375.41V236H1339.81V101.6ZM1394.21 165C1398.47 165 1401.74 163.4 1404.01 160.2C1406.41 156.867 1407.61 152.867 1407.61 148.2C1407.61 143.667 1406.27 139.8 1403.61 136.6C1401.07 133.4 1397.74 131.8 1393.61 131.8H1375.41V165H1394.21Z" fill="white"/>
	<path d="M0 177L108 0L64.6201 136H115L8 311L51 177H0Z" fill="#28DBD1"/>
</svg>