<svg width="157" height="40" viewBox="0 0 157 40" fill="none" xmlns="http://www.w3.org/2000/svg">
<path d="M44.7738 22.906C44.7738 23.1766 44.543 23.4046 44.2545 23.4046H34.6906C34.9359 25.7407 36.7102 27.8775 39.2201 27.8775C40.9367 27.8775 42.2061 27.2365 43.1582 25.8832C43.2592 25.7408 43.4034 25.641 43.5765 25.641C43.8506 25.641 44.0526 25.8405 44.0526 26.1111C44.0526 26.2108 44.0237 26.2821 43.9804 26.3533C43.014 28.0057 41.0954 28.8177 39.2201 28.8177C36.0033 28.8177 33.6953 25.9687 33.6953 22.9345C33.6953 19.886 35.9889 17.0513 39.2201 17.0513C42.437 17.0513 44.7594 19.8718 44.7738 22.906ZM43.7496 22.4644C43.5477 20.1282 41.7301 17.9915 39.2201 17.9915C36.7102 17.9915 34.9359 20.1282 34.6906 22.4644H43.7496ZM56.3861 17.2792C56.6601 17.2792 56.8621 17.5214 56.8621 17.7493C56.8621 18.0199 56.6601 18.2194 56.3861 18.2194H53.8184V28.1766C53.8184 28.4188 53.6164 28.6467 53.3424 28.6467C53.0683 28.6467 52.8663 28.4046 52.8663 28.1766V18.2194H50.3996C50.1256 18.2194 49.9236 18.0199 49.9236 17.7493C49.9236 17.5071 50.1256 17.2792 50.3996 17.2792H52.8663V13.6467C52.8663 13.4046 53.0539 13.1766 53.2991 13.1481C53.602 13.1197 53.8328 13.3333 53.8328 13.6182V17.2792H56.3861ZM72.0518 22.094V28.1197C72.0518 28.3903 71.8065 28.5898 71.5757 28.5898C71.3017 28.5898 71.0997 28.3903 71.0997 28.1197V22.094C71.0997 20.057 69.9313 18.0342 67.6377 18.0342C64.695 18.0342 63.4255 20.5698 63.5986 23.1766C63.5986 23.2479 63.6275 23.547 63.6275 23.5898V28.1054C63.6275 28.3476 63.44 28.5755 63.1947 28.604C62.8918 28.6325 62.661 28.4188 62.661 28.1339V8.31908C62.661 8.07692 62.863 7.849 63.137 7.849C63.4111 7.849 63.6131 8.09116 63.6131 8.31908V19.5157C64.4353 18.0627 65.9067 17.0798 67.6233 17.0798C70.4506 17.0798 72.0518 19.5157 72.0518 22.094ZM89.2321 22.906C89.2321 23.1766 89.0013 23.4046 88.7128 23.4046H79.1489C79.3942 25.7407 81.1685 27.8775 83.6784 27.8775C85.395 27.8775 86.6644 27.2365 87.6165 25.8832C87.7175 25.7408 87.8617 25.641 88.0348 25.641C88.3089 25.641 88.5109 25.8405 88.5109 26.1111C88.5109 26.2108 88.482 26.2821 88.4387 26.3533C87.4723 28.0057 85.5537 28.8177 83.6784 28.8177C80.4616 28.8177 78.1536 25.9687 78.1536 22.9345C78.1536 19.886 80.4472 17.0513 83.6784 17.0513C86.8808 17.0513 89.2033 19.8718 89.2321 22.906ZM88.1935 22.4644C87.9916 20.1282 86.174 17.9915 83.664 17.9915C81.1685 17.9915 79.3798 20.1282 79.1345 22.4644H88.1935ZM100.974 17.7208C100.974 18.0199 100.801 18.1909 100.527 18.2336C97.7141 18.6467 96.4447 20.9117 96.4447 23.547V28.0627C96.4447 28.3049 96.2572 28.5328 96.0119 28.5613C95.709 28.5898 95.4782 28.3761 95.4782 28.0912V17.792C95.4782 17.5499 95.6657 17.3219 95.911 17.2935C96.2139 17.265 96.4447 17.4786 96.4447 17.7635V19.8576C97.2381 18.5328 98.8104 17.2792 100.455 17.2792C100.7 17.2792 100.974 17.4501 100.974 17.7208ZM116.712 22.906C116.712 23.1766 116.481 23.4046 116.193 23.4046H106.629C106.874 25.7407 108.648 27.8775 111.158 27.8775C112.875 27.8775 114.144 27.2365 115.096 25.8832C115.197 25.7408 115.342 25.641 115.515 25.641C115.789 25.641 115.991 25.8405 115.991 26.1111C115.991 26.2108 115.962 26.2821 115.919 26.3533C114.952 28.0057 113.034 28.8177 111.158 28.8177C107.942 28.8177 105.634 25.9687 105.634 22.9345C105.634 19.886 107.927 17.0513 111.158 17.0513C114.375 17.0513 116.698 19.8718 116.712 22.906ZM115.688 22.4644C115.486 20.1282 113.668 17.9915 111.158 17.9915C108.648 17.9915 106.874 20.1282 106.629 22.4644H115.688ZM132.176 17.8348V28.1766C132.176 28.4473 131.931 28.6467 131.7 28.6467C131.426 28.6467 131.224 28.4473 131.224 28.1766V26.2108C130.43 27.7635 129.031 28.8889 127.242 28.8889C124.401 28.8889 122.828 26.453 122.828 23.8747V17.8205C122.828 17.5784 123.03 17.3504 123.304 17.3504C123.578 17.3504 123.78 17.5926 123.78 17.8205V23.8747C123.78 25.9117 124.949 27.9345 127.242 27.9345C130.459 27.9345 131.224 24.9573 131.224 21.6667V17.8063C131.224 17.5214 131.527 17.2365 131.873 17.3647C132.046 17.4501 132.176 17.6353 132.176 17.8348ZM156.396 22.0513V28.1054C156.396 28.3761 156.15 28.5755 155.92 28.5755C155.645 28.5755 155.444 28.3761 155.444 28.1054V22.0513C155.444 20.0142 154.275 18.0199 151.981 18.0199C149.096 18.0199 148 21.0684 148 23.4331V28.1054C148 28.3761 147.755 28.5755 147.524 28.5755C147.25 28.5755 147.048 28.3761 147.048 28.1054V22.0513C147.048 20.0142 145.88 18.0199 143.586 18.0199C140.672 18.0199 139.475 20.2849 139.576 23.3049C139.576 23.3761 139.605 23.5043 139.576 23.547V28.0912C139.576 28.3333 139.388 28.5613 139.143 28.5898C138.84 28.6182 138.609 28.4046 138.609 28.1197V17.792C138.609 17.5499 138.797 17.3219 139.042 17.2935C139.345 17.265 139.576 17.4786 139.576 17.7635V19.4872C140.398 18.0342 141.869 17.0798 143.586 17.0798C145.533 17.0798 147.048 18.3048 147.668 20.0855C148.462 18.3191 150.005 17.0798 151.981 17.0798C154.794 17.0798 156.396 19.4872 156.396 22.0513Z" fill="white"/>
<path opacity="0.6" d="M12.5769 27.3505L24.5642 20.3562L12.5769 14.9858L0.604004 20.3562L12.5769 27.3505Z" fill="white"/>
<path opacity="0.45" d="M12.5769 14.9856V0.726318L0.604004 20.3559L12.5769 27.3503V14.9856Z" fill="white"/>
<path opacity="0.8" d="M12.5771 27.3503L24.5644 20.3559L12.5771 0.726318V14.9856V27.3503Z" fill="white"/>
<path opacity="0.45" d="M12.5769 29.587L0.604004 22.6069L12.5769 39.2736V29.587Z" fill="white"/>
<path opacity="0.8" d="M24.5644 22.6069L12.5771 29.587V39.2736L24.5644 22.6069Z" fill="white"/>
</svg>
