<svg width="155" height="40" viewBox="0 0 155 40" fill="none" xmlns="http://www.w3.org/2000/svg">
<g clip-path="url(#clip0_1346_523)">
<path d="M14.1341 0.383169C15.1122 -0.127723 16.6005 -0.127723 17.5786 0.383169L27.5592 5.59634C28.1483 5.90403 28.4718 6.36253 28.5298 6.83584H28.5393V33.04C28.5264 33.5562 28.1998 34.0691 27.5592 34.4038L17.5786 39.6169C16.6005 40.1278 15.1122 40.1278 14.1341 39.6169L4.15343 34.4038C3.51558 34.0706 3.20947 33.5541 3.19432 33.04C3.19281 32.9894 3.19262 32.9472 3.19407 32.9122L3.19401 7.00416C3.193 6.97578 3.19291 6.94744 3.19372 6.91922L3.19432 6.83584L3.19879 6.83581C3.24312 6.35731 3.55195 5.91053 4.15343 5.59634L14.1341 0.383169ZM26.9681 21.455L17.5786 26.3594C16.6005 26.8703 15.1122 26.8703 14.1341 26.3594L4.76507 21.4659V32.9881L14.1341 37.8559C14.6631 38.1356 15.2122 38.4081 15.7491 38.4428L15.8563 38.4463C16.4158 38.4481 16.959 38.1672 17.5098 37.9012L26.9681 32.9463V21.455ZM1.57097 32.4703C1.57097 33.4741 1.68896 34.1341 1.92323 34.5991C2.11741 34.9844 2.40875 35.2788 2.94073 35.6372L2.9711 35.6575C3.08784 35.7353 3.21645 35.8169 3.37299 35.9125L3.55761 36.0244L4.12451 36.3628L3.31144 37.6922L2.67692 37.3131L2.57027 37.2484C2.38681 37.1362 2.23475 37.0403 2.09292 36.9456C0.57677 35.9347 0.0113261 34.8328 0.000168845 32.54L0 32.4703H1.57097ZM15.0706 14.4315C14.998 14.4562 14.9299 14.4847 14.8678 14.5172L4.88712 19.7303C4.87665 19.7358 4.86665 19.7412 4.85716 19.7466L4.8487 19.7514L4.86436 19.7603L4.88712 19.7725L14.8678 24.9857C14.9299 25.0181 14.998 25.0467 15.0706 25.0713V14.4315ZM16.6421 14.4315V25.0713C16.7147 25.0467 16.7828 25.0181 16.8449 24.9857L26.8256 19.7725C26.836 19.767 26.846 19.7616 26.8555 19.7563L26.864 19.7514L26.8483 19.7426L26.8256 19.7303L16.8449 14.5172C16.7828 14.4847 16.7147 14.4562 16.6421 14.4315ZM26.9681 8.69469L18.0149 13.3712L26.9681 18.0478V8.69469ZM4.76507 8.70562V18.0369L13.6975 13.3712L4.76507 8.70562ZM16.8449 1.75692C16.3259 1.48582 15.3868 1.48582 14.8678 1.75692L4.88712 6.97012C4.87665 6.97559 4.86665 6.981 4.85716 6.98634L4.8487 6.99119L4.86436 7.00006L4.88712 7.01228L14.8678 12.2255C15.3868 12.4966 16.3259 12.4966 16.8449 12.2255L26.8256 7.01228C26.836 7.00681 26.846 7.00141 26.8555 6.99603L26.864 6.99119L26.8483 6.98231L26.8256 6.97012L16.8449 1.75692ZM28.4431 2.32861L29.0777 2.70757L29.1843 2.77233C29.3678 2.88432 29.5198 2.98053 29.6617 3.0751C31.1778 4.08594 31.7432 5.18803 31.7542 7.48066L31.7546 7.5505H30.1836C30.1836 6.5465 30.0656 5.88663 29.8313 5.42172C29.6372 5.03641 29.3458 4.74194 28.8138 4.38363L28.7835 4.36328C28.6667 4.28544 28.5381 4.20391 28.3816 4.10806L28.197 3.99625L27.6301 3.65794L28.4431 2.32861Z" fill="white"/>
<path d="M47.7134 31.9475V17.3339H51.7906V14.6582H47.7134V12.7372C47.7134 10.5646 48.6695 9.47834 50.5814 9.47834C51.1341 9.47834 51.7218 9.56981 52.3436 9.75275V6.90553C51.5834 6.67684 50.7427 6.5625 49.8212 6.5625C48.0477 6.5625 46.6712 7.06562 45.6922 8.07187C44.7131 9.07812 44.2236 10.5418 44.2236 12.4628V14.6582H40.8721V17.3339H44.2236V31.9475H47.7134ZM61.8801 32.1875C63.2163 32.1875 64.3852 31.9131 65.3872 31.3641C66.3892 30.8153 67.1438 30.0263 67.6506 28.9972V31.9475H71.1059V14.6582H67.6506V17.4711C67.1205 16.442 66.3606 15.6473 65.3699 15.087C64.3796 14.5267 63.2163 14.2466 61.8801 14.2466C60.3829 14.2466 59.0467 14.6239 57.8721 15.3786C56.6972 16.1333 55.7816 17.1967 55.1252 18.5688C54.4687 19.941 54.1404 21.519 54.1404 23.3028C54.1404 25.0866 54.4627 26.6474 55.1079 27.9853C55.7527 29.3231 56.6569 30.358 57.8202 31.0898C58.9835 31.8216 60.3367 32.1875 61.8801 32.1875ZM62.7095 29.4432C61.1199 29.4432 59.8817 28.9058 58.9951 27.8309C58.1082 26.7561 57.6646 25.2467 57.6646 23.3028C57.6646 21.336 58.1082 19.7981 58.9951 18.6889C59.8817 17.5798 61.1085 17.0252 62.6749 17.0252C64.2642 17.0252 65.491 17.5626 66.3546 18.6375C67.2186 19.7123 67.6506 21.2446 67.6506 23.2342C67.6506 25.2009 67.2186 26.7275 66.3546 27.8137C65.491 28.9 64.2758 29.4432 62.7095 29.4432ZM79.6749 31.9475V22.1022C79.6749 20.5699 80.1182 19.3464 81.0051 18.4317C81.892 17.5169 83.0726 17.0595 84.5469 17.0595C85.8368 17.0595 86.7753 17.4025 87.363 18.0886C87.9503 18.7747 88.2439 19.8724 88.2439 21.3818V31.9475H91.7338V21.176C91.7338 16.5564 89.649 14.2466 85.4797 14.2466C84.1438 14.2466 82.9516 14.5382 81.9034 15.1213C80.8555 15.7045 80.055 16.5449 79.502 17.6427L79.191 14.6582H75.9433C76.1275 16.099 76.2196 17.7227 76.2196 19.5294V31.9475H79.6749ZM103.413 32.1875C104.38 32.1875 105.244 32.0619 106.004 31.8103V28.9972C105.382 29.1802 104.772 29.2717 104.173 29.2717C103.251 29.2717 102.532 29.0258 102.013 28.5341C101.495 28.0424 101.236 27.202 101.236 26.0128V17.3339H106.039V14.6582H101.236V9.13528L97.7461 10.3359V14.6582H94.3596V17.3339H97.7461V26.2872C97.7461 28.2083 98.2412 29.6719 99.2316 30.6781C100.222 31.6844 101.616 32.1875 103.413 32.1875ZM116.75 32.1875C118.431 32.1875 119.917 31.8216 121.207 31.0898C122.497 30.358 123.493 29.3174 124.196 27.9681C124.899 26.6188 125.25 25.0408 125.25 23.2342C125.25 21.4275 124.899 19.8438 124.196 18.4831C123.493 17.1224 122.497 16.0761 121.207 15.3443C119.917 14.6125 118.431 14.2466 116.75 14.2466C115.045 14.2466 113.548 14.6125 112.258 15.3443C110.968 16.0761 109.972 17.1224 109.269 18.4831C108.567 19.8438 108.215 21.4275 108.215 23.2342C108.215 25.0408 108.567 26.6188 109.269 27.9681C109.972 29.3174 110.968 30.358 112.258 31.0898C113.548 31.8216 115.045 32.1875 116.75 32.1875ZM116.715 29.4432C115.126 29.4432 113.899 28.9172 113.035 27.8652C112.172 26.8132 111.74 25.2696 111.74 23.2342C111.74 21.2446 112.177 19.7123 113.053 18.6375C113.928 17.5626 115.16 17.0252 116.75 17.0252C118.316 17.0252 119.532 17.5626 120.395 18.6375C121.259 19.7123 121.691 21.2446 121.691 23.2342C121.691 25.2696 121.265 26.8132 120.413 27.8652C119.56 28.9172 118.328 29.4432 116.715 29.4432ZM132.782 31.9475V22.1708C132.782 20.5928 133.174 19.3464 133.957 18.4317C134.74 17.5169 135.8 17.0595 137.136 17.0595C138.288 17.0595 139.123 17.4025 139.641 18.0886C140.159 18.7747 140.419 19.861 140.419 21.3475V31.9475H143.908V22.1708C143.908 20.5928 144.294 19.3464 145.066 18.4317C145.838 17.5169 146.891 17.0595 148.228 17.0595C149.379 17.0595 150.214 17.4025 150.732 18.0886C151.251 18.7747 151.51 19.861 151.51 21.3475V31.9475H155V21.176C155 16.5564 153.065 14.2466 149.195 14.2466C147.905 14.2466 146.747 14.5439 145.722 15.1385C144.697 15.7331 143.92 16.5449 143.39 17.574C142.561 15.3557 140.799 14.2466 138.104 14.2466C136.837 14.2466 135.731 14.5324 134.786 15.1042C133.842 15.6759 133.117 16.4878 132.61 17.5398L132.299 14.6582H129.051C129.235 16.099 129.327 17.7227 129.327 19.5294V31.9475H132.782Z" fill="white"/>
</g>
<defs>
<clipPath id="clip0_1346_523">
<rect width="155" height="40" fill="white"/>
</clipPath>
</defs>
</svg>
