<svg width="194" height="32" viewBox="0 0 194 32" fill="none" xmlns="http://www.w3.org/2000/svg">
<path d="M167.251 9.03663C168.393 10.1118 168.965 11.4686 168.965 13.107C168.965 14.7454 168.393 16.1022 167.251 17.1774C166.125 18.2356 164.633 18.7646 162.774 18.7646H159.32V25.5998H157.376V7.42383H162.774C164.633 7.42383 166.125 7.96143 167.251 9.03663ZM165.869 15.8718C166.62 15.155 166.995 14.2334 166.995 13.107C166.995 11.9806 166.62 11.059 165.869 10.3422C165.136 9.60836 164.104 9.24143 162.774 9.24143H159.32V16.947H162.774C164.104 16.947 165.136 16.5886 165.869 15.8718ZM171.833 25.5998V12.7998H173.624V14.7966C173.914 14.2164 174.391 13.7214 175.057 13.3118C175.722 12.8852 176.438 12.6718 177.206 12.6718C177.615 12.6718 177.965 12.706 178.254 12.7742L178.024 14.6174C177.7 14.515 177.333 14.4638 176.924 14.4638C176.191 14.4638 175.517 14.7198 174.903 15.2318C174.289 15.7268 173.863 16.4009 173.624 17.2542V25.5998H171.833ZM190.689 23.9358C189.426 25.2158 187.832 25.8558 185.905 25.8558C183.977 25.8558 182.383 25.2158 181.121 23.9358C179.859 22.6388 179.228 21.0601 179.228 19.1998C179.228 17.3396 179.859 15.7694 181.121 14.4894C182.383 13.1924 183.977 12.5438 185.905 12.5438C187.832 12.5438 189.426 13.1924 190.689 14.4894C191.951 15.7694 192.582 17.3396 192.582 19.1998C192.582 21.0601 191.951 22.6388 190.689 23.9358ZM182.4 22.7582C183.304 23.714 184.472 24.1918 185.905 24.1918C187.337 24.1918 188.497 23.714 189.384 22.7582C190.288 21.7854 190.74 20.5993 190.74 19.1998C190.74 17.8004 190.288 16.6228 189.384 15.667C188.497 14.6942 187.337 14.2078 185.905 14.2078C184.472 14.2078 183.304 14.6942 182.4 15.667C181.513 16.6228 181.07 17.8004 181.07 19.1998C181.07 20.5993 181.513 21.7854 182.4 22.7582Z" fill="white"/>
<path d="M48.0823 20.6337C49.1908 21.7601 50.5297 22.3233 52.0987 22.3233C53.6678 22.3233 54.9981 21.7601 56.0896 20.6337C57.1981 19.4902 57.7524 18.1164 57.7524 16.5121C57.7524 14.9078 57.1981 13.5425 56.0896 12.4161C54.9981 11.2726 53.6678 10.7009 52.0987 10.7009C50.5297 10.7009 49.1908 11.2726 48.0823 12.4161C46.9908 13.5425 46.445 14.9078 46.445 16.5121C46.445 18.1164 46.9908 19.4902 48.0823 20.6337ZM58.7246 23.1681C56.8997 24.9942 54.6911 25.9073 52.0987 25.9073C49.5064 25.9073 47.2892 24.9942 45.4473 23.1681C43.6224 21.3249 42.71 19.1062 42.71 16.5121C42.71 13.918 43.6224 11.7078 45.4473 9.88171C47.2892 8.03851 49.5064 7.11691 52.0987 7.11691C54.6911 7.11691 56.8997 8.03851 58.7246 9.88171C60.5665 11.7078 61.4875 13.918 61.4875 16.5121C61.4875 19.1062 60.5665 21.3249 58.7246 23.1681ZM63.9628 25.6001V6.91211H67.4676V25.6001H63.9628ZM75.8728 30.5665H72.061L74.5681 24.8833L69.1958 12.8001H73.0331L76.4612 21.0945L79.8636 12.8001H83.7266L75.8728 30.5665ZM101.54 25.6001V18.8417C101.54 16.7766 100.807 15.7441 99.3399 15.7441C98.2313 15.7441 97.4126 16.2476 96.8839 17.2545C96.9522 17.5446 96.9863 17.8689 96.9863 18.2273V25.6001H93.4815V18.8417C93.4815 16.7766 92.7481 15.7441 91.2814 15.7441C90.7868 15.7441 90.3263 15.8721 89.8999 16.1281C89.4736 16.367 89.1495 16.6913 88.9278 17.1009V25.6001H85.423V12.8001H88.9278V13.7985C89.6782 12.9452 90.7186 12.5185 92.0489 12.5185C93.4985 12.5185 94.7009 13.0817 95.656 14.2081C96.6281 13.0817 98.0181 12.5185 99.8259 12.5185C101.548 12.5185 102.845 13.0476 103.714 14.1057C104.601 15.1638 105.045 16.5377 105.045 18.2273V25.6001H101.54ZM108.258 30.5665V12.8001H111.763V13.7217C112.598 12.9196 113.69 12.5185 115.037 12.5185C116.879 12.5185 118.388 13.1756 119.565 14.4897C120.759 15.7868 121.356 17.3569 121.356 19.2001C121.356 21.0433 120.759 22.622 119.565 23.9361C118.388 25.2332 116.879 25.8817 115.037 25.8817C113.673 25.8817 112.581 25.4721 111.763 24.6529V30.5665H108.258ZM114.525 22.6817C115.481 22.6817 116.257 22.3489 116.853 21.6833C117.45 21.0006 117.749 20.1729 117.749 19.2001C117.749 18.2273 117.45 17.4081 116.853 16.7425C116.257 16.0598 115.481 15.7185 114.525 15.7185C113.366 15.7185 112.445 16.1793 111.763 17.1009V21.2737C112.445 22.2124 113.366 22.6817 114.525 22.6817ZM135.612 12.8001V25.6001H132.107V24.5761C131.271 25.4465 130.222 25.8817 128.96 25.8817C127.34 25.8817 126.07 25.3697 125.149 24.3457C124.245 23.3046 123.793 21.9308 123.793 20.2241V12.8001H127.297V19.6353C127.297 21.6662 128.099 22.6817 129.702 22.6817C130.674 22.6817 131.476 22.1953 132.107 21.2225V12.8001H135.612ZM143.284 25.8817C140.863 25.8817 139.106 25.0625 138.014 23.4241L140.419 21.3761C141.033 22.366 141.988 22.8609 143.284 22.8609C143.677 22.8609 144.009 22.7841 144.282 22.6305C144.555 22.4769 144.691 22.2465 144.691 21.9393C144.691 21.6662 144.572 21.4444 144.333 21.2737C144.112 21.086 143.66 20.8982 142.977 20.7105L142.031 20.4801C140.854 20.1729 139.959 19.6609 139.345 18.9441C138.748 18.2273 138.466 17.374 138.5 16.3841C138.535 15.2236 138.995 14.2934 139.882 13.5937C140.786 12.8769 141.929 12.5185 143.31 12.5185C145.271 12.5185 146.747 13.2353 147.736 14.6689L145.433 16.5377C144.836 15.7868 144.112 15.4113 143.259 15.4113C142.918 15.4113 142.619 15.4881 142.363 15.6417C142.108 15.7953 141.98 16.0086 141.98 16.2817C141.98 16.7937 142.398 17.1606 143.233 17.3825L144.436 17.7409C146.909 18.4065 148.145 19.7292 148.145 21.7089C148.145 22.9206 147.685 23.919 146.764 24.7041C145.843 25.4892 144.683 25.8817 143.284 25.8817Z" fill="white"/>
<path fill-rule="evenodd" clip-rule="evenodd" d="M11.2504 29.8664V29.8009V28.4201V24.412C7.15121 23.1208 4.18621 19.3694 4.18621 14.9428C4.18621 9.44804 8.75466 4.99368 14.3901 4.99368C20.0256 4.99368 24.594 9.44804 24.594 14.9428C24.594 19.3694 21.629 23.1208 17.5298 24.412V28.4201V29.8009V29.8664H28.7802V25.8082H23.2245C26.5672 23.2739 28.7148 19.3344 28.7148 14.91C28.7148 7.26441 22.3015 1.06641 14.3901 1.06641C6.4788 1.06641 0.0654096 7.26441 0.0654096 14.91C0.0654096 19.3344 2.21301 23.2739 5.55571 25.8082H0V29.8664H11.2504Z" fill="white"/>
</svg>
