<svg width="126" height="32" viewBox="0 0 126 32" fill="none" xmlns="http://www.w3.org/2000/svg">
<g clip-path="url(#clip0_1346_526)">
<g opacity="0.5">
<path d="M20.2149 31.9973C18.6261 32.1036 15.4786 29.5103 14.6016 26.1119C12.9296 19.6364 26.486 16.357 27.7308 16.2623C31.1921 16.3557 32.0589 20.654 29.5137 25.1058C26.244 30.8274 20.2704 31.9935 20.2149 31.9973Z" fill="white"/>
<path d="M11.279 1.89301C13.2144 1.01621 15.3538 0.52469 17.608 0.52469C21.3154 0.517082 24.9022 1.86204 27.7157 4.31477C31.3218 7.17173 30.2861 17.4642 26.5943 14.7672C18.5731 14.7519 3.56907 10.3756 8.04585 4.35445C8.49819 3.74517 9.05007 3.21909 9.69141 2.76725L9.64101 2.75061C9.85269 2.62261 10.0719 2.50485 10.2912 2.38581C10.6105 2.20175 10.9404 2.03719 11.279 1.89301Z" fill="white"/>
</g>
<path fill-rule="evenodd" clip-rule="evenodd" d="M90.9754 9.4823C90.8381 9.47206 90.5546 9.44262 89.9548 9.44262C89.4332 9.44262 88.9481 9.49254 88.497 9.58854C86.6171 9.95974 85.4163 11.0017 84.3806 12.1037V9.92262H78.4913V29.3773H84.3806V21.2506C84.3806 20.2906 84.431 19.41 84.5368 18.6087C84.6414 17.8087 84.8707 17.1213 85.2235 16.5479C85.5763 15.9732 86.0803 15.5265 86.7355 15.2065C87.3894 14.8865 88.279 14.7265 89.4054 14.7265C90.2585 14.7237 91.1066 14.859 91.9179 15.1271V9.6423C91.6094 9.5588 91.2938 9.50523 90.9754 9.4823ZM106.467 9.4823C106.33 9.47206 106.048 9.44262 105.447 9.44262C104.925 9.44262 104.44 9.49254 103.989 9.58854C102.109 9.95974 100.909 11.0017 99.8723 12.1037V9.92262H93.983V29.3773H99.8723V21.2506C99.8723 20.2906 99.9239 19.41 100.028 18.6087C100.133 17.8087 100.362 17.1213 100.716 16.5479C101.069 15.9732 101.573 15.5265 102.227 15.2065C102.882 14.8865 103.771 14.7265 104.897 14.7265C105.75 14.7237 106.598 14.859 107.41 15.1271V9.6423C107.101 9.5588 106.786 9.50523 106.467 9.4823ZM45.003 8.54406H37.1797V3.14758H58.8681V8.54406H51.0447V28.3265H45.003V8.54406ZM70.5155 17.2596C70.5357 16.7898 70.4585 16.3209 70.2887 15.8834C70.1189 15.4459 69.8605 15.0495 69.5302 14.7201C68.8473 14.0161 67.9678 13.6641 66.8905 13.6641C66.234 13.6641 65.6557 13.7677 65.1567 13.9764C64.6872 14.1661 64.2536 14.4372 63.8753 14.7777C63.5212 15.1041 63.2453 15.4817 63.0488 15.9117C62.8531 16.3351 62.7393 16.7926 62.7136 17.2596H70.5155ZM75.5202 25.6244C74.5642 26.8312 73.3335 27.7836 71.9343 28.3994C70.5217 29.0438 68.9908 29.3771 67.4424 29.3773C66.0269 29.3869 64.6203 29.1487 63.2844 28.6733C62.0353 28.2356 60.8835 27.5518 59.895 26.6612C58.933 25.7834 58.1619 24.7114 57.6307 23.5137C57.0789 22.29 56.8029 20.9217 56.8029 19.41C56.8029 17.8996 57.0801 16.53 57.6307 15.3063C58.1625 14.1087 58.9341 13.0367 59.8962 12.1588C60.8849 11.2683 62.0366 10.5845 63.2856 10.1466C64.6212 9.67141 66.0273 9.43326 67.4424 9.44262C68.8082 9.44262 70.0493 9.67686 71.1657 10.1466C72.282 10.6151 73.227 11.2858 74.0032 12.1588C74.7768 13.033 75.3753 14.0813 75.7962 15.3063C76.2157 16.5313 76.4262 17.8983 76.4262 19.41V21.2468H62.7136C62.9505 22.3681 63.462 23.2602 64.2508 23.9245C65.0383 24.5901 66.0098 24.9217 67.1664 24.9217C68.1366 24.9217 68.9594 24.7066 69.6285 24.2765C70.3088 23.8371 70.9034 23.2739 71.3824 22.6151L75.5202 25.6244ZM120.871 22.1901V21.8701C120.872 21.669 120.811 21.4727 120.696 21.3089C120.581 21.145 120.419 21.0217 120.231 20.9562C119.324 20.6461 118.373 20.4896 117.417 20.4929C115.102 20.4929 113.677 21.4324 113.677 23.1655V23.2372C113.677 24.7181 114.888 25.586 116.633 25.586C119.162 25.586 120.871 24.1767 120.871 22.1901ZM108.443 23.4548V23.3818C108.443 19.1578 111.612 17.2071 116.134 17.2071C118.058 17.2071 119.448 17.5322 120.8 18.0007V17.6769C120.8 15.401 119.411 14.1377 116.705 14.1377C114.638 14.1377 113.179 14.5345 111.434 15.1847L110.081 10.9953C112.181 10.057 114.248 9.44262 117.488 9.44262C120.444 9.44262 122.581 10.2362 123.934 11.6097C125.358 13.0535 126 15.1847 126 17.7844V29.0164H120.764V26.921C119.446 28.402 117.631 29.3773 114.995 29.3773C111.397 29.3773 108.443 27.282 108.443 23.4548Z" fill="white"/>
<path fill-rule="evenodd" clip-rule="evenodd" d="M11.97 3.53032C9.94141 6.55752 3.18277 8.69128 2.07145 8.35848L2.06641 8.34568L2.20501 8.07304C3.36618 5.85966 5.01516 3.94882 7.02325 2.48968C7.43905 2.18632 7.86997 1.90344 8.31475 1.63976C9.25849 1.09576 10.2287 1.06248 10.5475 1.04968C13.5563 1.106 11.9851 3.506 11.9687 3.53032" fill="white"/>
<mask id="mask0_1346_526" style="mask-type:alpha" maskUnits="userSpaceOnUse" x="0" y="10" width="11" height="22">
<path d="M0 10.4922H10.3282V31.4752H0V10.4922Z" fill="white"/>
</mask>
<g mask="url(#mask0_1346_526)">
<path fill-rule="evenodd" clip-rule="evenodd" d="M10.2678 26.2157C10.419 27.2103 10.264 31.1411 10.0599 31.4727C9.88598 31.4829 9.52058 31.5059 8.46596 30.912C6.41962 29.7408 4.63785 28.1466 3.2357 26.2323C2.20997 24.8302 1.40646 23.2737 0.854301 21.6192C0.285905 19.9078 -0.00267619 18.1134 2.10904e-05 16.3072C-0.00312626 14.3217 0.346015 12.3519 1.0307 10.4922H1.03322C2.24282 12.1037 3.64142 13.5616 4.8296 15.1898C5.96234 16.7386 7.5197 19.264 7.83596 19.8042C9.80408 23.1539 10.1178 25.2211 10.2678 26.2157Z" fill="white"/>
</g>
<path fill-rule="evenodd" clip-rule="evenodd" d="M33.0492 16.4929C33.0492 18.642 32.646 20.6964 31.9165 22.5805C30.0013 24.6797 17.0838 19.5137 16.9565 19.4573C15.19 18.6689 9.81231 16.2676 9.32721 12.4967C8.62917 7.07206 19.4299 3.29094 24.1763 3.14758C24.7446 3.15398 26.4771 3.17446 27.4863 4.01158C29.2364 5.56815 30.6383 7.48719 31.5978 9.63977C32.5573 11.7923 33.0522 14.1286 33.0492 16.4916V16.4929ZM21.7533 29.9111C22.5257 27.1335 29.2793 24.2868 30.7699 24.1332C30.9539 24.114 31.032 24.2458 30.9513 24.3969C29.3965 27.2692 27.0945 29.6346 24.3086 31.1681C22.8999 31.8618 21.3501 31.3562 21.7533 29.9111Z" fill="white"/>
</g>
<defs>
<clipPath id="clip0_1346_526">
<rect width="126" height="32" fill="white"/>
</clipPath>
</defs>
</svg>
